{
	"asset":{
		"generator":"Khronos glTF Blender I/O v3.6.27",
		"version":"2.0"
	},
	"scene":0,
	"scenes":[
		{
			"name":"Scene",
			"nodes":[
				3
			]
		}
	],
	"nodes":[
		{
			"mesh":0,
			"name":"commodore_put"
		},
		{
			"mesh":1,
			"name":"commodore_put.001"
		},
		{
			"mesh":2,
			"name":"spacebar"
		},
		{
			"children":[
				0,
				1,
				2
			],
			"name":"commondore_put_obj6759BB98_C3B3_4556_B0DE_1FFE5A4DC059",
			"rotation":[
				0.7071068286895752,
				0,
				0,
				0.7071068286895752
			],
			"scale":[
				9.999999747378752e-05,
				9.999999747378752e-05,
				9.999999747378752e-05
			]
		}
	],
	"animations":[
		{
			"channels":[
				{
					"sampler":0,
					"target":{
						"node":2,
						"path":"translation"
					}
				}
			],
			"name":"spacebarAction",
			"samplers":[
				{
					"input":12,
					"interpolation":"LINEAR",
					"output":13
				}
			]
		}
	],
	"materials":[
		{
			"doubleSided":true,
			"name":"material",
			"pbrMetallicRoughness":{
				"baseColorTexture":{
					"index":0
				},
				"metallicFactor":0,
				"roughnessFactor":0.5527864098548889
			}
		}
	],
	"meshes":[
		{
			"name":"Scene",
			"primitives":[
				{
					"attributes":{
						"POSITION":0,
						"NORMAL":1,
						"TEXCOORD_0":2
					},
					"indices":3,
					"material":0
				}
			]
		},
		{
			"name":"Scene.001",
			"primitives":[
				{
					"attributes":{
						"POSITION":4,
						"NORMAL":5,
						"TEXCOORD_0":6
					},
					"indices":7,
					"material":0
				}
			]
		},
		{
			"name":"Scene.002",
			"primitives":[
				{
					"attributes":{
						"POSITION":8,
						"NORMAL":9,
						"TEXCOORD_0":10
					},
					"indices":11,
					"material":0
				}
			]
		}
	],
	"textures":[
		{
			"sampler":0,
			"source":0
		}
	],
	"images":[
		{
			"bufferView":4,
			"mimeType":"image/png",
			"name":"commondore_BaseMap"
		}
	],
	"accessors":[
		{
			"bufferView":0,
			"componentType":5126,
			"count":2215,
			"max":[
				27994.84765625,
				20476.73046875,
				1416.3699951171875
			],
			"min":[
				-27994.861328125,
				-43872.94140625,
				-43871.7265625
			],
			"type":"VEC3"
		},
		{
			"bufferView":1,
			"componentType":5126,
			"count":2215,
			"type":"VEC3"
		},
		{
			"bufferView":2,
			"componentType":5126,
			"count":2215,
			"type":"VEC2"
		},
		{
			"bufferView":3,
			"componentType":5123,
			"count":4734,
			"type":"SCALAR"
		},
		{
			"bufferView":5,
			"componentType":5126,
			"count":4,
			"max":[
				27424.771484375,
				-18414.5703125,
				-3741.419921875
			],
			"min":[
				-27424.78125,
				-43515.859375,
				-8710.7001953125
			],
			"type":"VEC3"
		},
		{
			"bufferView":6,
			"componentType":5126,
			"count":4,
			"type":"VEC3"
		},
		{
			"bufferView":7,
			"componentType":5126,
			"count":4,
			"type":"VEC2"
		},
		{
			"bufferView":8,
			"componentType":5123,
			"count":6,
			"type":"SCALAR"
		},
		{
			"bufferView":9,
			"componentType":5126,
			"count":20,
			"max":[
				17406.609375,
				-37832.859375,
				-4273.16015625
			],
			"min":[
				-652.77001953125,
				-39832.859375,
				-5810.669921875
			],
			"type":"VEC3"
		},
		{
			"bufferView":10,
			"componentType":5126,
			"count":20,
			"type":"VEC3"
		},
		{
			"bufferView":11,
			"componentType":5126,
			"count":20,
			"type":"VEC2"
		},
		{
			"bufferView":12,
			"componentType":5123,
			"count":30,
			"type":"SCALAR"
		},
		{
			"bufferView":13,
			"componentType":5126,
			"count":10,
			"max":[
				0.4
			],
			"min":[
				0.04
			],
			"type":"SCALAR"
		},
		{
			"bufferView":14,
			"componentType":5126,
			"count":10,
			"type":"VEC3"
		}
	],
	"bufferViews":[
		{
			"buffer":0,
			"byteLength":26580,
			"byteOffset":0,
			"target":34962
		},
		{
			"buffer":0,
			"byteLength":26580,
			"byteOffset":26580,
			"target":34962
		},
		{
			"buffer":0,
			"byteLength":17720,
			"byteOffset":53160,
			"target":34962
		},
		{
			"buffer":0,
			"byteLength":9468,
			"byteOffset":70880,
			"target":34963
		},
		{
			"buffer":0,
			"byteLength":3058069,
			"byteOffset":80348
		},
		{
			"buffer":0,
			"byteLength":48,
			"byteOffset":3138420,
			"target":34962
		},
		{
			"buffer":0,
			"byteLength":48,
			"byteOffset":3138468,
			"target":34962
		},
		{
			"buffer":0,
			"byteLength":32,
			"byteOffset":3138516,
			"target":34962
		},
		{
			"buffer":0,
			"byteLength":12,
			"byteOffset":3138548,
			"target":34963
		},
		{
			"buffer":0,
			"byteLength":240,
			"byteOffset":3138560,
			"target":34962
		},
		{
			"buffer":0,
			"byteLength":240,
			"byteOffset":3138800,
			"target":34962
		},
		{
			"buffer":0,
			"byteLength":160,
			"byteOffset":3139040,
			"target":34962
		},
		{
			"buffer":0,
			"byteLength":60,
			"byteOffset":3139200,
			"target":34963
		},
		{
			"buffer":0,
			"byteLength":40,
			"byteOffset":3139260
		},
		{
			"buffer":0,
			"byteLength":120,
			"byteOffset":3139300
		}
	],
	"samplers":[
		{
			"magFilter":9729,
			"minFilter":9987
		}
	],
	"buffers":[
		{
			"byteLength":3139420,
			"uri":"data:application/octet-stream;base64,"
		}
	]
}
